<?xml version="1.0" standalone="no"?>
<!DOCTYPE svg PUBLIC "-//W3C//DTD SVG 20010904//EN"
 "http://www.w3.org/TR/2001/REC-SVG-20010904/DTD/svg10.dtd">
<svg version="1.0" xmlns="http://www.w3.org/2000/svg"
 width="688.000000pt" height="688.000000pt" viewBox="0 0 688.000000 688.000000"
 preserveAspectRatio="xMidYMid meet">

<g transform="translate(0.000000,688.000000) scale(0.100000,-0.100000)"
fill="#000000" stroke="none">
<path d="M3581 5887 c-8 -10 -11 -52 -9 -133 l3 -119 65 -13 c36 -7 166 -38
290 -69 199 -50 242 -64 369 -125 79 -37 175 -79 212 -93 l67 -24 37 44 c20
25 62 58 96 77 68 36 74 44 60 79 -7 19 -51 47 -183 116 -153 80 -202 100
-423 171 -241 77 -254 80 -375 86 -69 4 -141 9 -161 12 -24 4 -39 1 -48 -9z"/>
<path d="M3601 5403 c5 -17 59 -88 120 -159 60 -71 141 -180 181 -242 l71
-114 -28 -88 -28 -89 -46 -10 c-25 -5 -99 -20 -163 -32 -78 -15 -115 -26 -108
-33 6 -6 10 -45 10 -88 0 -56 4 -78 13 -78 6 0 57 9 112 19 55 11 137 23 182
27 76 6 88 4 152 -22 l69 -28 41 -156 c22 -85 43 -182 46 -215 3 -33 9 -78 12
-99 l5 -39 -38 23 c-22 13 -129 87 -239 166 -110 78 -235 161 -277 184 -42 23
-80 50 -83 60 -5 15 -14 5 -42 -48 -19 -37 -38 -69 -42 -72 -3 -3 -7 -10 -8
-16 -1 -7 139 -112 312 -235 l315 -224 0 -50 c0 -28 -5 -56 -12 -63 -9 -9 -8
-12 4 -12 31 0 51 -102 26 -129 -11 -11 -10 -13 5 -8 27 10 21 -23 -15 -85
-18 -30 -64 -119 -103 -196 l-69 -142 -42 0 c-47 0 -88 -12 -159 -46 -42 -20
-56 -22 -90 -14 -37 8 -38 8 -20 -6 11 -9 27 -19 35 -24 12 -7 13 -14 2 -42
-6 -19 -12 -75 -12 -124 l-1 -89 -89 -78 c-82 -72 -89 -81 -100 -129 -9 -46
-8 -58 11 -105 13 -33 27 -53 37 -53 9 0 68 52 132 115 l117 115 99 0 100 0
51 -52 c86 -88 198 -235 216 -284 9 -26 16 -48 15 -49 -2 -2 -100 10 -218 26
-239 31 -470 39 -470 16 0 -7 15 -37 33 -67 l32 -55 167 -21 c91 -12 218 -34
281 -50 l116 -28 20 -49 c12 -27 26 -77 32 -112 10 -57 9 -66 -12 -106 -12
-24 -56 -86 -97 -138 -42 -53 -87 -115 -100 -138 -15 -27 -31 -43 -43 -43 -23
0 -42 -34 -34 -60 6 -17 16 -20 79 -20 l72 0 51 53 c27 28 81 95 118 147 38
52 86 114 109 137 l40 43 86 0 c74 -1 82 -2 62 -13 -30 -17 -132 -171 -148
-224 -12 -41 -12 -43 7 -43 31 0 133 56 274 149 180 120 179 120 254 82 44
-23 61 -37 61 -51 0 -14 -7 -20 -23 -20 -14 0 -74 -40 -152 -101 -98 -75 -166
-118 -275 -173 -168 -85 -367 -152 -480 -161 -143 -12 -247 49 -338 197 -55
91 -283 651 -493 1211 -65 174 -142 363 -170 419 l-51 101 -33 -34 c-27 -28
-45 -70 -104 -249 -99 -301 -100 -299 15 -594 47 -121 153 -398 236 -615 82
-217 176 -447 208 -512 51 -101 67 -124 117 -165 32 -26 100 -67 151 -91 93
-43 94 -43 205 -43 135 0 290 33 527 111 217 72 524 233 700 367 345 263 634
628 807 1017 71 161 85 203 131 395 51 216 82 453 62 474 -13 13 -300 21 -300
9 0 -5 -13 -97 -30 -204 -60 -395 -191 -700 -446 -1043 -87 -117 -131 -156
-176 -156 -8 0 -58 31 -112 69 -53 38 -121 79 -151 91 l-54 22 -7 71 c-5 52
-16 89 -41 136 -44 86 -44 143 0 277 19 54 42 141 52 192 15 77 20 92 36 92
11 0 50 16 87 35 57 29 75 45 121 109 30 41 63 77 75 79 49 12 277 40 281 35
3 -3 -8 -68 -24 -144 -45 -210 -126 -386 -281 -610 -87 -125 -130 -194 -130
-208 0 -2 21 -16 46 -31 35 -20 54 -25 77 -21 51 10 138 123 251 324 86 153
107 202 162 367 51 149 67 214 79 310 8 66 18 138 21 159 l6 39 -223 -6 c-123
-4 -242 -9 -265 -13 l-40 -6 -18 54 -19 55 49 89 c82 150 186 393 198 464 11
63 12 65 44 68 l32 3 0 -50 c0 -27 18 -137 40 -245 22 -107 40 -198 40 -201 0
-3 36 -5 80 -5 l80 0 0 49 c0 56 -35 310 -50 356 -103 336 -95 324 -165 255
-25 -25 -74 -55 -130 -79 -59 -26 -94 -48 -102 -63 -55 -105 -234 -492 -244
-526 -11 -39 -15 -42 -38 -38 -14 3 -60 8 -102 12 l-76 6 -62 83 -62 84 15 53
c8 29 18 101 22 159 l6 107 79 78 c44 43 79 83 79 89 0 5 -12 38 -26 73 -39
89 -55 87 -169 -28 -60 -60 -99 -91 -119 -95 -17 -4 -39 -9 -48 -11 -16 -5
-18 2 -18 55 0 33 -7 93 -15 133 -9 40 -27 136 -40 213 l-25 139 31 83 c30 77
31 86 20 144 -15 89 -56 134 -161 179 -45 19 -87 42 -94 50 -7 8 -41 65 -76
125 -63 109 -221 298 -259 309 -9 3 -60 8 -113 12 l-98 6 11 -29z m948 -1985
c28 -52 41 -91 46 -133 6 -54 4 -68 -23 -128 -32 -71 -53 -87 -113 -87 -25 0
-139 -23 -276 -55 -21 -5 -23 -2 -23 30 0 25 30 95 100 234 l99 200 38 4 c114
12 108 14 152 -65z m403 -225 c37 -36 38 -39 38 -108 0 -63 -3 -75 -30 -113
-34 -45 -40 -48 -122 -58 -57 -6 -58 -6 -108 36 l-50 42 0 91 1 92 37 27 c33
24 46 27 117 28 78 0 80 -1 117 -37z m-315 -315 c52 -52 53 -53 53 -113 0 -75
-36 -202 -89 -319 l-40 -86 -80 0 -80 0 -55 78 c-30 42 -93 119 -140 170 l-85
93 16 52 c8 29 19 56 24 61 5 6 91 29 191 52 100 23 184 47 186 53 8 25 49 8
99 -41z m-5 -685 l58 -57 0 -66 c0 -64 -1 -67 -43 -108 l-43 -42 -84 1 -85 0
-37 49 c-35 45 -38 55 -38 112 0 62 0 63 52 115 51 51 54 53 107 53 54 0 57
-2 113 -57z"/>
<path d="M1100 4174 c-6 -14 -10 -27 -10 -30 0 -2 35 -53 79 -112 77 -106 82
-116 276 -587 109 -264 255 -624 325 -801 106 -268 165 -394 186 -394 18 0 72
155 122 350 57 219 60 239 51 290 -12 68 3 28 -190 515 -189 476 -222 538
-345 646 -69 59 -91 73 -171 99 -50 17 -131 35 -180 40 -129 14 -132 14 -143
-16z"/>
</g>
</svg>
